<svg width="16" height="16" viewBox="0 0 16 16" fill="none" xmlns="http://www.w3.org/2000/svg">
<path fill-rule="evenodd" clip-rule="evenodd" d="M8 0C3.58172 0 0 3.58172 0 8C0 12.4183 3.58172 16 8 16C12.4183 16 16 12.4183 16 8C16 3.58172 12.4183 0 8 0ZM5.37303 4.21581C5.62714 4.11601 5.91777 4.04807 6.34337 4.02801C6.77001 4.00721 6.90601 4.00254 7.99235 4.00047C9.07869 3.99834 9.21572 4.00311 9.64149 4.02151C10.0673 4.03991 10.358 4.10701 10.6126 4.2055C10.876 4.30694 11.0994 4.44334 11.322 4.66534C11.5445 4.88734 11.6817 5.10997 11.7845 5.37294C11.8843 5.62727 11.9521 5.91693 11.9723 6.3435C11.9925 6.77006 11.9974 6.90623 11.9995 7.99233C12.0016 9.07839 11.9972 9.21469 11.9785 9.64166C11.9601 10.0671 11.8931 10.3581 11.7945 10.6125C11.6929 10.876 11.5564 11.0992 11.3347 11.3219C11.113 11.5446 10.8901 11.6818 10.6271 11.7846C10.3728 11.884 10.0838 11.9522 9.65715 11.9724C9.23055 11.9926 9.09382 11.9974 8.00788 11.9995C6.92194 12.0016 6.78491 11.9973 6.35914 11.9786C5.93337 11.96 5.6424 11.893 5.388 11.7946C5.124 11.6927 4.90113 11.5565 4.6785 11.3346C4.45583 11.1128 4.3185 10.89 4.21583 10.627C4.11599 10.3729 4.04833 10.0823 4.02799 9.65679C4.00736 9.23006 4.00256 9.09389 4.00049 8.00769C3.99839 6.92143 4.00256 6.78453 4.02136 6.3587C4.04016 5.93287 4.10689 5.64197 4.20536 5.38737C4.3071 5.12397 4.4437 4.90094 4.66543 4.67837C4.8872 4.4558 5.1101 4.3183 5.37303 4.21581ZM5.6472 11.123C5.78834 11.1773 6.0001 11.2421 6.39011 11.259C6.81194 11.2773 6.93801 11.2816 8.00618 11.2793C9.07435 11.277 9.20075 11.2728 9.62262 11.253C10.0121 11.2344 10.2239 11.1688 10.3647 11.1138C10.5514 11.0409 10.6845 10.9543 10.8241 10.8138C10.9638 10.6734 11.0506 10.5402 11.1226 10.3534C11.1769 10.2121 11.2416 10.0002 11.2586 9.61022C11.2771 9.18869 11.2809 9.06189 11.2789 7.99423C11.277 6.92656 11.2725 6.80006 11.2524 6.37823C11.234 5.98813 11.1685 5.7767 11.1134 5.63613C11.0405 5.4491 10.9538 5.31637 10.8133 5.17657C10.6727 5.0367 10.5397 4.95024 10.3527 4.87824C10.2118 4.82374 9.99972 4.75917 9.61005 4.74224C9.18805 4.72364 9.06132 4.71964 7.99355 4.72197C6.92578 4.7243 6.79937 4.7283 6.37754 4.7483C5.9877 4.76687 5.7762 4.8323 5.6352 4.88734C5.44857 4.9603 5.31537 5.04687 5.17577 5.18744C5.03617 5.32797 4.94943 5.46087 4.87743 5.64797C4.8233 5.78903 4.7581 6.00103 4.74143 6.3907C4.72296 6.81236 4.71886 6.9388 4.7212 8.00669C4.72353 9.07463 4.7277 9.20119 4.74753 9.62269C4.76576 10.0127 4.83176 10.2242 4.88656 10.3654C4.95953 10.5518 5.0459 10.6854 5.18657 10.8247C5.3272 10.964 5.46033 11.051 5.6472 11.123ZM9.73238 6.12869C9.67949 6.04984 9.65118 5.95708 9.65102 5.86213C9.65081 5.73486 9.70115 5.61272 9.79097 5.52256C9.8808 5.4324 10.0028 5.3816 10.13 5.38133C10.225 5.38114 10.3178 5.4091 10.3969 5.46169C10.4759 5.51428 10.5376 5.58912 10.5741 5.67677C10.6106 5.76441 10.6203 5.86091 10.602 5.95407C10.5836 6.04722 10.5381 6.13284 10.4711 6.20011C10.4041 6.26737 10.3186 6.31324 10.2255 6.33194C10.1324 6.35063 10.0359 6.3413 9.94812 6.30512C9.86034 6.26894 9.78526 6.20754 9.73238 6.12869ZM8.00385 10.0538C6.86971 10.0559 5.9484 9.13839 5.94617 8.00399C5.94404 6.86973 6.86171 5.9483 7.99605 5.94607C9.13039 5.94383 10.0519 6.8616 10.0541 7.99599C10.0562 9.13039 9.13805 10.0516 8.00385 10.0538ZM6.88992 7.26136C6.74384 7.48092 6.66615 7.73886 6.66667 8.00256C6.667 8.17766 6.70182 8.35099 6.76914 8.51263C6.83646 8.67428 6.93497 8.82108 7.05903 8.94465C7.1831 9.06822 7.33029 9.16614 7.4922 9.23282C7.65411 9.2995 7.82758 9.33362 8.00268 9.33326C8.26639 9.33273 8.52402 9.25402 8.74299 9.10707C8.96196 8.96013 9.13244 8.75155 9.23287 8.50772C9.3333 8.26388 9.35917 7.99574 9.30721 7.73721C9.25525 7.47867 9.12779 7.24135 8.94095 7.05525C8.75411 6.86915 8.51628 6.74264 8.25754 6.69171C7.9988 6.64077 7.73076 6.66771 7.48733 6.76911C7.24389 6.87051 7.03599 7.04181 6.88992 7.26136Z" fill="#4F4F4F"/>
</svg>
