<svg width="16" height="16" viewBox="0 0 16 16" fill="none" xmlns="http://www.w3.org/2000/svg">
<path fill-rule="evenodd" clip-rule="evenodd" d="M8 0C3.58172 0 0 3.58172 0 8C0 12.4183 3.58172 16 8 16C12.4183 16 16 12.4183 16 8C16 3.58172 12.4183 0 8 0ZM4 5.5C4.06495 8.62312 5.62397 10.5 8.35726 10.5H8.51219V8.7132C9.51657 8.81331 10.276 9.54905 10.5808 10.5H12C11.6102 9.07857 10.5858 8.29278 9.94623 7.99248C10.5858 7.62211 11.4853 6.72123 11.7001 5.5H10.4109C10.1311 6.49099 9.3017 7.39188 8.51219 7.47696V5.5H7.22295V8.96346C6.42346 8.76326 5.41411 7.79229 5.36914 5.5H4Z" fill="#4F4F4F"/>
</svg>
