<svg width="16" height="16" viewBox="0 0 16 16" fill="none" xmlns="http://www.w3.org/2000/svg">
<path fill-rule="evenodd" clip-rule="evenodd" d="M8 0C3.58172 0 0 3.58172 0 8C0 12.4183 3.58172 16 8 16C12.4183 16 16 12.4183 16 8C16 3.58172 12.4183 0 8 0ZM11.5742 5.45746C11.6983 5.59047 11.7875 5.75586 11.8327 5.93708C12 6.60556 12 8 12 8C12 8 12 9.39444 11.833 10.0629C11.7878 10.2442 11.6987 10.4096 11.5746 10.5426C11.4504 10.6756 11.2956 10.7716 11.1257 10.8208C10.5017 11 8 11 8 11C8 11 5.49833 11 4.87467 10.8208C4.70473 10.7715 4.54994 10.6756 4.4258 10.5425C4.30166 10.4095 4.21253 10.2441 4.16733 10.0629C4 9.39444 4 8 4 8C4 8 4 6.60556 4.16733 5.93708C4.21253 5.75592 4.30162 5.59057 4.42569 5.45757C4.54976 5.32457 4.70447 5.22857 4.87433 5.17918C5.49833 5 8 5 8 5C8 5 10.5017 5 11.1253 5.17918C11.2953 5.22848 11.4501 5.32444 11.5742 5.45746ZM9.27267 8L7.18167 6.734V9.266L9.27267 8Z" fill="#4F4F4F"/>
</svg>
